<svg width="390" height="165" viewBox="0 0 390 165" fill="none" xmlns="http://www.w3.org/2000/svg">
<path d="M111.094 143.448C78.4688 162.708 23.4375 118.704 0 94.2947V0H390V101.818C378.125 104.995 355.781 160 316.875 160C289.219 160 282.656 144.451 232.5 123.386C182.344 102.32 151.875 119.373 111.094 143.448Z" fill="#E3BF00" fill-opacity="0.55"/>
<path fill-rule="evenodd" clip-rule="evenodd" d="M0 151.5V159.5L11 158.5L21.5 157C75.5 148.5 68 104.633 94 101.5C120 98.3667 130 131.6 156 150.4C182 169.2 208 169.2 234 147.267C260 125.333 286 81.4667 312 75.2C338 68.9333 364 100.267 377 115.933L390 131.6V0H377C364 0 338 0 312 0C286 0 260 0 234 0C208 0 182 0 156 0C130 0 104 0 78 0C52 0 26 0 13 0H0V151.5Z" fill="#E3BF00" fill-opacity="0.53"/>
</svg>
