<svg width="24" height="24" viewBox="0 0 24 24" fill="none" xmlns="http://www.w3.org/2000/svg">
    <path d="M21.7892 10.0338H20.9843V9.9923H11.9913V13.9892H17.6384C16.8146 16.3159 14.6008 17.9861 11.9913 17.9861C8.68033 17.9861 5.99591 15.3017 5.99591 11.9908C5.99591 8.67981 8.68033 5.99539 11.9913 5.99539C13.5196 5.99539 14.91 6.57194 15.9687 7.51371L18.795 4.6874C17.0104 3.02418 14.6232 1.99847 11.9913 1.99847C6.47304 1.99847 1.99899 6.47252 1.99899 11.9908C1.99899 17.509 6.47304 21.983 11.9913 21.983C17.5095 21.983 21.9836 17.509 21.9836 11.9908C21.9836 11.3208 21.9146 10.6668 21.7892 10.0338Z" fill="#FFC107"/>
    <path d="M3.15067 7.33985L6.43363 9.74749C7.32194 7.54819 9.47328 5.99539 11.9908 5.99539C13.5192 5.99539 14.9096 6.57194 15.9683 7.51372L18.7946 4.6874C17.01 3.02418 14.6228 1.99847 11.9908 1.99847C8.1528 1.99847 4.82437 4.1653 3.15067 7.33985Z" fill="#FF3D00"/>
    <path d="M11.9909 21.9831C14.5719 21.9831 16.9171 20.9953 18.6903 19.3891L15.5976 16.7721C14.5607 17.5607 13.2937 17.9872 11.9909 17.9862C9.39194 17.9862 7.18515 16.3289 6.35379 14.0162L3.09531 16.5268C4.74903 19.7628 8.10744 21.9831 11.9909 21.9831Z" fill="#4CAF50"/>
    <path d="M21.7888 10.0338H20.9839V9.99231H11.9908V13.9892H17.638C17.2439 15.0966 16.534 16.0642 15.5961 16.7726L15.5976 16.7716L18.6902 19.3886C18.4713 19.5874 21.9831 16.9869 21.9831 11.9908C21.9831 11.3208 21.9142 10.6668 21.7888 10.0338Z" fill="#1976D2"/>
</svg>