<svg width="20" height="24" viewBox="0 0 20 24" fill="none" xmlns="http://www.w3.org/2000/svg">
<g id="logos:apple" clip-path="url(#clip0_686_495)">
<path id="Vector" d="M16.1219 12.7261C16.1552 16.3512 19.2694 17.5576 19.3039 17.573C19.2775 17.658 18.8063 19.292 17.6632 20.9799C16.6751 22.4392 15.6495 23.893 14.0339 23.9231C12.4465 23.9527 11.936 22.972 10.1211 22.972C8.30674 22.972 7.73959 23.893 6.23687 23.9527C4.67744 24.0123 3.48992 22.3748 2.49364 20.9208C0.457633 17.9469 -1.09825 12.517 0.990915 8.85181C2.02875 7.03162 3.88355 5.87909 5.89663 5.84952C7.42793 5.82004 8.87335 6.89044 9.80946 6.89044C10.745 6.89044 12.5014 5.6032 14.3479 5.79223C15.1209 5.82476 17.2908 6.10766 18.6841 8.16831C18.5717 8.23863 16.095 9.69547 16.1219 12.7262M13.1386 3.82469C13.9665 2.81211 14.5237 1.40259 14.3717 0C13.1783 0.0484571 11.7353 0.803505 10.8793 1.81547C10.1121 2.7117 9.44034 4.14606 9.62162 5.52084C10.9518 5.62484 12.3106 4.83787 13.1386 3.82469Z" fill="black"/>
</g>
<defs>
<clipPath id="clip0_686_495">
<rect width="19.3043" height="24" fill="white"/>
</clipPath>
</defs>
</svg>
